<svg width="25" height="25" viewBox="0 0 25 25" fill="none" xmlns="http://www.w3.org/2000/svg">
<rect width="25" height="25" rx="6" fill="#C1D7F9"/>
<path d="M20.5 9.2025V6.1725C20.5 4.98 20.02 4.5 18.8275 4.5H15.7975C14.605 4.5 14.125 4.98 14.125 6.1725V9.2025C14.125 10.395 14.605 10.875 15.7975 10.875H18.8275C20.02 10.875 20.5 10.395 20.5 9.2025Z" stroke="#292D32" stroke-width="1.5" stroke-linecap="round" stroke-linejoin="round"/>
<path d="M11.875 9.39V5.985C11.875 4.9275 11.395 4.5 10.2025 4.5H7.1725C5.98 4.5 5.5 4.9275 5.5 5.985V9.3825C5.5 10.4475 5.98 10.8675 7.1725 10.8675H10.2025C11.395 10.875 11.875 10.4475 11.875 9.39Z" stroke="#292D32" stroke-width="1.5" stroke-linecap="round" stroke-linejoin="round"/>
<path d="M11.875 17.8275V14.7975C11.875 13.605 11.395 13.125 10.2025 13.125H7.1725C5.98 13.125 5.5 13.605 5.5 14.7975V17.8275C5.5 19.02 5.98 19.5 7.1725 19.5H10.2025C11.395 19.5 11.875 19.02 11.875 17.8275Z" stroke="#292D32" stroke-width="1.5" stroke-linecap="round" stroke-linejoin="round"/>
<path d="M14.875 16.125H19.375" stroke="#292D32" stroke-width="1.5" stroke-linecap="round"/>
<path d="M17.125 18.375V13.875" stroke="#292D32" stroke-width="1.5" stroke-linecap="round"/>
</svg>
