<svg width="361" height="150" viewBox="0 0 361 150" fill="none" xmlns="http://www.w3.org/2000/svg">
<g clip-path="url(#clip0_67_260)">
<path d="M11 62.7453L372 62.7453" stroke="#8D8D8D" stroke-width="0.1" stroke-linecap="round"/>
<path d="M11 79.7453L372 79.7453" stroke="#8D8D8D" stroke-width="0.1" stroke-linecap="round"/>
<path d="M11 96.7453L372 96.7453" stroke="#8D8D8D" stroke-width="0.1" stroke-linecap="round"/>
<path d="M11 113.745L372 113.745" stroke="#8D8D8D" stroke-width="0.1" stroke-linecap="round"/>
<path d="M11 130.745L372 130.745" stroke="#8D8D8D" stroke-width="0.1" stroke-linecap="round"/>
<path d="M14.7969 90.2727L13.4961 94.7453H12.832L11.2969 89.1086H12.0312L13.1602 93.7102H13.1914L14.4609 89.1086H15.1719L16.4414 93.7102H16.4727L17.6016 89.1086H18.3359L16.8008 94.7453H16.1367L14.8359 90.2727H14.7969ZM19.668 92.4875L21.4648 90.6828H22.2891L20.5273 92.4367L22.3438 94.7453H21.5547L20.0469 92.8547L19.668 93.2141V94.7453H18.9883V89.1086H19.668V92.4875ZM27.1719 94.7453V93.5735H24.3398V92.9367C24.8203 92.0461 25.4805 91.0188 26.8125 89.1086H27.8516V92.9563H28.6484V93.5735H27.8516V94.7453H27.1719ZM25.0352 92.9406V92.9563H27.1719V89.6945H27.1602C26.0938 91.218 25.4805 92.1594 25.0352 92.9406Z" fill="#8D8D8D"/>
<path d="M14.8789 107.273L13.5781 111.745H12.9141L11.3789 106.109H12.1133L13.2422 110.71H13.2734L14.543 106.109H15.2539L16.5234 110.71H16.5547L17.6836 106.109H18.418L16.8828 111.745H16.2188L14.918 107.273H14.8789ZM19.75 109.488L21.5469 107.683H22.3711L20.6094 109.437L22.4258 111.745H21.6367L20.1289 109.855L19.75 110.214V111.745H19.0703V106.109H19.75V109.488ZM26.5117 111.839C25.4336 111.839 24.6367 111.167 24.5781 110.206H25.2695C25.332 110.808 25.8438 111.222 26.5195 111.222C27.2852 111.222 27.8164 110.691 27.8164 109.933C27.8164 109.175 27.2812 108.632 26.5312 108.632C26.0039 108.632 25.5547 108.87 25.3242 109.265H24.6641L24.9727 106.109H28.1992V106.734H25.5508L25.3789 108.57H25.3945C25.6484 108.23 26.1172 108.027 26.6562 108.027C27.7383 108.027 28.5195 108.82 28.5195 109.913C28.5195 111.046 27.6875 111.839 26.5117 111.839Z" fill="#3D7CDB"/>
<path d="M14.8516 73.2727L13.5508 77.7453H12.8867L11.3516 72.1086H12.0859L13.2148 76.7102H13.2461L14.5156 72.1086H15.2266L16.4961 76.7102H16.5273L17.6562 72.1086H18.3906L16.8555 77.7453H16.1914L14.8906 73.2727H14.8516ZM19.7227 75.4875L21.5195 73.6828H22.3438L20.582 75.4367L22.3984 77.7453H21.6094L20.1016 75.8547L19.7227 76.2141V77.7453H19.043V72.1086H19.7227V75.4875ZM25.6953 75.1438V74.55H26.3711C27.0195 74.55 27.4727 74.132 27.4727 73.5617C27.4727 73.0031 27.0938 72.6242 26.3789 72.6242C25.7305 72.6242 25.3008 72.9953 25.2383 73.5852H24.5625C24.6406 72.6281 25.3516 72.0149 26.4102 72.0149C27.418 72.0149 28.1797 72.6203 28.1797 73.468C28.1797 74.175 27.7266 74.6828 27.0234 74.8078V74.8235C27.875 74.8742 28.4219 75.4016 28.4219 76.1945C28.4219 77.1633 27.5391 77.8391 26.4336 77.8391C25.2539 77.8391 24.5 77.1867 24.4492 76.2531H25.125C25.1875 76.8313 25.668 77.2297 26.4258 77.2297C27.1719 77.2297 27.707 76.8078 27.707 76.218C27.707 75.5539 27.207 75.1438 26.4023 75.1438H25.6953Z" fill="#8D8D8D"/>
<path d="M14.8242 124.273L13.5234 128.745H12.8594L11.3242 123.109H12.0586L13.1875 127.71H13.2188L14.4883 123.109H15.1992L16.4688 127.71H16.5L17.6289 123.109H18.3633L16.8281 128.745H16.1641L14.8633 124.273H14.8242ZM19.6953 126.488L21.4922 124.683H22.3164L20.5547 126.437L22.3711 128.745H21.582L20.0742 126.855L19.6953 127.214V128.745H19.0156V123.109H19.6953V126.488ZM26.5586 128.843C25.7148 128.843 25.043 128.386 24.6953 127.573C24.5078 127.14 24.418 126.632 24.418 126.023C24.418 124.124 25.2266 123.011 26.6055 123.011C27.5625 123.011 28.2969 123.585 28.4766 124.472H27.7617C27.6094 123.96 27.1562 123.632 26.5977 123.632C25.6562 123.632 25.1211 124.468 25.0977 125.968H25.1094C25.3633 125.417 25.9844 125.054 26.6836 125.054C27.7578 125.054 28.5547 125.847 28.5547 126.917C28.5547 128.03 27.7148 128.843 26.5586 128.843ZM26.5508 128.218C27.2695 128.218 27.8398 127.652 27.8398 126.941C27.8398 126.202 27.3086 125.671 26.5625 125.671C25.8164 125.671 25.2656 126.202 25.2656 126.921C25.2656 127.644 25.8281 128.218 26.5508 128.218Z" fill="#8D8D8D"/>
<path d="M55 91H63V129C63 130.105 62.1046 131 61 131H57C55.8954 131 55 130.105 55 129V91Z" fill="#3D7CDB"/>
<path d="M55 53C55 51.8954 55.8954 51 57 51H61C62.1046 51 63 51.8954 63 53V91H55V53Z" fill="#E0EBFD"/>
<path d="M52.6836 137.449H53.3906C53.457 138.059 54.0352 138.461 54.8398 138.461C55.6016 138.461 56.1562 138.059 56.1562 137.504C56.1562 137.027 55.8242 136.734 55.0664 136.539L54.3438 136.352C53.3047 136.086 52.8438 135.629 52.8438 134.863C52.8438 133.926 53.6641 133.27 54.8359 133.27C55.957 133.27 56.7695 133.934 56.8008 134.879H56.0977C56.0352 134.273 55.5469 133.902 54.8125 133.902C54.082 133.902 53.5742 134.281 53.5742 134.832C53.5742 135.258 53.8867 135.512 54.6523 135.711L55.2422 135.867C56.4102 136.16 56.8828 136.609 56.8828 137.418C56.8828 138.449 56.0703 139.094 54.7734 139.094C53.5781 139.094 52.75 138.445 52.6836 137.449ZM60.9336 134.938V139H60.2891V138.34H60.2734C60.0312 138.809 59.6094 139.07 58.9844 139.07C58.0977 139.07 57.5781 138.496 57.5781 137.574V134.938H58.2578V137.453C58.2578 138.113 58.5664 138.469 59.1953 138.469C59.8555 138.469 60.2539 138.016 60.2539 137.324V134.938H60.9336ZM61.8164 139V134.938H62.457V135.586H62.4727C62.6992 135.148 63.1328 134.867 63.7617 134.867C64.6523 134.867 65.168 135.441 65.168 136.363V139H64.4883V136.484C64.4883 135.828 64.1797 135.469 63.5547 135.469C62.9141 135.469 62.4961 135.922 62.4961 136.609V139H61.8164Z" fill="#8D8D8D"/>
<path d="M105 81H113V129C113 130.105 112.105 131 111 131H107C105.895 131 105 130.105 105 129V81Z" fill="#3D7CDB"/>
<path d="M105 53C105 51.8954 105.895 51 107 51H111C112.105 51 113 51.8954 113 53V81H105V53Z" fill="#E0EBFD"/>
<path d="M106.543 139H105.887V134.656H105.859L104.062 138.961H103.469L101.672 134.656H101.645V139H100.988V133.363H101.805L103.75 138.066H103.781L105.727 133.363H106.543V139ZM109.215 139.07C108.09 139.07 107.332 138.262 107.332 136.969C107.332 135.672 108.09 134.867 109.215 134.867C110.336 134.867 111.094 135.672 111.094 136.969C111.094 138.262 110.336 139.07 109.215 139.07ZM109.215 138.473C109.934 138.473 110.402 137.926 110.402 136.969C110.402 136.012 109.934 135.465 109.215 135.465C108.496 135.465 108.023 136.012 108.023 136.969C108.023 137.926 108.496 138.473 109.215 138.473ZM111.781 139V134.938H112.422V135.586H112.438C112.664 135.148 113.098 134.867 113.727 134.867C114.617 134.867 115.133 135.441 115.133 136.363V139H114.453V136.484C114.453 135.828 114.145 135.469 113.52 135.469C112.879 135.469 112.461 135.922 112.461 136.609V139H111.781Z" fill="#8D8D8D"/>
<rect x="153" y="51" width="8" height="80" rx="2" fill="#3D7CDB"/>
<path d="M153.133 139H152.43V133.996H150.652V133.363H154.91V133.996H153.133V139ZM158 134.938V139H157.355V138.34H157.34C157.098 138.809 156.676 139.07 156.051 139.07C155.164 139.07 154.645 138.496 154.645 137.574V134.938H155.324V137.453C155.324 138.113 155.633 138.469 156.262 138.469C156.922 138.469 157.32 138.016 157.32 137.324V134.938H158ZM160.512 135.457C159.875 135.457 159.43 135.945 159.387 136.621H161.594C161.578 135.941 161.152 135.457 160.512 135.457ZM161.578 137.836H162.246C162.129 138.547 161.441 139.07 160.555 139.07C159.391 139.07 158.684 138.262 158.684 136.984C158.684 135.723 159.402 134.867 160.523 134.867C161.621 134.867 162.297 135.664 162.297 136.895V137.152H159.383V137.191C159.383 137.969 159.84 138.48 160.57 138.48C161.086 138.48 161.465 138.219 161.578 137.836Z" fill="#8D8D8D"/>
<path d="M201 121H209V129C209 130.105 208.105 131 207 131H203C201.895 131 201 130.105 201 129V121Z" fill="#3D7CDB"/>
<path d="M201 53C201 51.8954 201.895 51 203 51H207C208.105 51 209 51.8954 209 53V121H201V53Z" fill="#E0EBFD"/>
<path d="M200.93 134.527L199.629 139H198.965L197.43 133.363H198.164L199.293 137.965H199.324L200.594 133.363H201.305L202.574 137.965H202.605L203.734 133.363H204.469L202.934 139H202.27L200.969 134.527H200.93ZM206.285 135.457C205.648 135.457 205.203 135.945 205.16 136.621H207.367C207.352 135.941 206.926 135.457 206.285 135.457ZM207.352 137.836H208.02C207.902 138.547 207.215 139.07 206.328 139.07C205.164 139.07 204.457 138.262 204.457 136.984C204.457 135.723 205.176 134.867 206.297 134.867C207.395 134.867 208.07 135.664 208.07 136.895V137.152H205.156V137.191C205.156 137.969 205.613 138.48 206.344 138.48C206.859 138.48 207.238 138.219 207.352 137.836ZM210.297 139.07C209.262 139.07 208.559 138.242 208.559 136.969C208.559 135.695 209.258 134.867 210.281 134.867C210.863 134.867 211.332 135.152 211.574 135.598H211.59V133.363H212.27V139H211.621V138.312H211.609C211.348 138.781 210.883 139.07 210.297 139.07ZM210.426 135.465C209.707 135.465 209.254 136.051 209.254 136.969C209.254 137.891 209.707 138.473 210.426 138.473C211.125 138.473 211.594 137.879 211.594 136.969C211.594 136.062 211.125 135.465 210.426 135.465Z" fill="#8D8D8D"/>
<rect x="251" y="51" width="8" height="80" rx="2" fill="#E0EBFD"/>
<path d="M249.852 139H249.148V133.996H247.371V133.363H251.629V133.996H249.852V139ZM252.301 139V133.363H252.98V135.586H252.996C253.223 135.133 253.668 134.867 254.285 134.867C255.176 134.867 255.715 135.469 255.715 136.375V139H255.035V136.5C255.035 135.855 254.711 135.469 254.074 135.469C253.398 135.469 252.98 135.93 252.98 136.633V139H252.301ZM259.914 134.938V139H259.27V138.34H259.254C259.012 138.809 258.59 139.07 257.965 139.07C257.078 139.07 256.559 138.496 256.559 137.574V134.938H257.238V137.453C257.238 138.113 257.547 138.469 258.176 138.469C258.836 138.469 259.234 138.016 259.234 137.324V134.938H259.914ZM260.797 139V134.938H261.438V135.602H261.453C261.586 135.152 261.961 134.867 262.438 134.867C262.555 134.867 262.656 134.887 262.711 134.895V135.555C262.656 135.535 262.512 135.516 262.348 135.516C261.82 135.516 261.477 135.895 261.477 136.469V139H260.797Z" fill="#8D8D8D"/>
<path d="M298 91H306V129C306 130.105 305.105 131 304 131H300C298.895 131 298 130.105 298 129V91Z" fill="#3D7CDB"/>
<path d="M298 53C298 51.8954 298.895 51 300 51H304C305.105 51 306 51.8954 306 53V91H298V53Z" fill="#E0EBFD"/>
<path d="M298.586 139H297.883V133.363H301.305V133.996H298.586V135.934H301.082V136.559H298.586V139ZM302.004 139V134.938H302.645V135.602H302.66C302.793 135.152 303.168 134.867 303.645 134.867C303.762 134.867 303.863 134.887 303.918 134.895V135.555C303.863 135.535 303.719 135.516 303.555 135.516C303.027 135.516 302.684 135.895 302.684 136.469V139H302.004ZM304.508 139V134.938H305.188V139H304.508ZM304.848 134.254C304.617 134.254 304.426 134.062 304.426 133.832C304.426 133.598 304.617 133.41 304.848 133.41C305.082 133.41 305.273 133.598 305.273 133.832C305.273 134.062 305.082 134.254 304.848 134.254Z" fill="#8D8D8D"/>
<path d="M342 71H350V129C350 130.105 349.105 131 348 131H344C342.895 131 342 130.105 342 129V71Z" fill="#3D7CDB"/>
<path d="M342 53C342 51.8954 342.895 51 344 51H348C349.105 51 350 51.8954 350 53V71H342V53Z" fill="#E0EBFD"/>
<path d="M340.688 137.449H341.395C341.461 138.059 342.039 138.461 342.844 138.461C343.605 138.461 344.16 138.059 344.16 137.504C344.16 137.027 343.828 136.734 343.07 136.539L342.348 136.352C341.309 136.086 340.848 135.629 340.848 134.863C340.848 133.926 341.668 133.27 342.84 133.27C343.961 133.27 344.773 133.934 344.805 134.879H344.102C344.039 134.273 343.551 133.902 342.816 133.902C342.086 133.902 341.578 134.281 341.578 134.832C341.578 135.258 341.891 135.512 342.656 135.711L343.246 135.867C344.414 136.16 344.887 136.609 344.887 137.418C344.887 138.449 344.074 139.094 342.777 139.094C341.582 139.094 340.754 138.445 340.688 137.449ZM346.941 138.492C347.582 138.492 348.074 138.043 348.074 137.457V137.125L346.988 137.191C346.441 137.227 346.129 137.469 346.129 137.852C346.129 138.238 346.453 138.492 346.941 138.492ZM346.789 139.07C345.98 139.07 345.438 138.582 345.438 137.852C345.438 137.156 345.973 136.719 346.91 136.664L348.074 136.598V136.258C348.074 135.762 347.746 135.465 347.184 135.465C346.66 135.465 346.332 135.711 346.246 136.109H345.59C345.637 135.406 346.238 134.867 347.199 134.867C348.152 134.867 348.754 135.383 348.754 136.191V139H348.109V138.301H348.094C347.852 138.766 347.336 139.07 346.789 139.07ZM349.836 133.957H350.516V134.938H351.305V135.496H350.516V137.91C350.516 138.281 350.672 138.449 351.02 138.449C351.098 138.449 351.254 138.438 351.301 138.43V139C351.219 139.02 351.031 139.031 350.871 139.031C350.125 139.031 349.836 138.727 349.836 137.945V135.496H349.23V134.938H349.836V133.957Z" fill="#8D8D8D"/>
<path d="M11.16 20.6125V19.06" stroke="#3D7CDB" stroke-width="1.5" stroke-linecap="round"/>
<path d="M15 20.6125V17.5075" stroke="#3D7CDB" stroke-width="1.5" stroke-linecap="round"/>
<path d="M18.84 20.6125V15.9475" stroke="#3D7CDB" stroke-width="1.5" stroke-linecap="round"/>
<path d="M18.84 11.3875L18.495 11.7925C16.5825 14.0275 14.0175 15.61 11.16 16.3225" stroke="#3D7CDB" stroke-width="1.5" stroke-linecap="round"/>
<path d="M16.6425 11.3875H18.84V13.5775" stroke="#3D7CDB" stroke-width="1.5" stroke-linecap="round" stroke-linejoin="round"/>
<path d="M12.75 23.5H17.25C21 23.5 22.5 22 22.5 18.25V13.75C22.5 10 21 8.5 17.25 8.5H12.75C9 8.5 7.5 10 7.5 13.75V18.25C7.5 22 9 23.5 12.75 23.5Z" stroke="#3D7CDB" stroke-width="1.5" stroke-linecap="round" stroke-linejoin="round"/>
<path d="M33.2539 18.3672V19H29.832V13.3633H30.5352V18.3672H33.2539ZM35.4336 15.457C34.7969 15.457 34.3516 15.9453 34.3086 16.6211H36.5156C36.5 15.9414 36.0742 15.457 35.4336 15.457ZM36.5 17.8359H37.168C37.0508 18.5469 36.3633 19.0703 35.4766 19.0703C34.3125 19.0703 33.6055 18.2617 33.6055 16.9844C33.6055 15.7227 34.3242 14.8672 35.4453 14.8672C36.543 14.8672 37.2188 15.6641 37.2188 16.8945V17.1523H34.3047V17.1914C34.3047 17.9688 34.7617 18.4805 35.4922 18.4805C36.0078 18.4805 36.3867 18.2188 36.5 17.8359ZM39.2461 18.4922C39.8867 18.4922 40.3789 18.043 40.3789 17.457V17.125L39.293 17.1914C38.7461 17.2266 38.4336 17.4688 38.4336 17.8516C38.4336 18.2383 38.7578 18.4922 39.2461 18.4922ZM39.0938 19.0703C38.2852 19.0703 37.7422 18.582 37.7422 17.8516C37.7422 17.1562 38.2773 16.7188 39.2148 16.6641L40.3789 16.5977V16.2578C40.3789 15.7617 40.0508 15.4648 39.4883 15.4648C38.9648 15.4648 38.6367 15.7109 38.5508 16.1094H37.8945C37.9414 15.4062 38.543 14.8672 39.5039 14.8672C40.457 14.8672 41.0586 15.3828 41.0586 16.1914V19H40.4141V18.3008H40.3984C40.1562 18.7656 39.6406 19.0703 39.0938 19.0703ZM41.9219 19V14.9375H42.5625V15.6016H42.5781C42.7109 15.1523 43.0859 14.8672 43.5625 14.8672C43.6797 14.8672 43.7812 14.8867 43.8359 14.8945V15.5547C43.7812 15.5352 43.6367 15.5156 43.4727 15.5156C42.9453 15.5156 42.6016 15.8945 42.6016 16.4688V19H41.9219ZM44.3906 19V14.9375H45.0312V15.5859H45.0469C45.2734 15.1484 45.707 14.8672 46.3359 14.8672C47.2266 14.8672 47.7422 15.4414 47.7422 16.3633V19H47.0625V16.4844C47.0625 15.8281 46.7539 15.4688 46.1289 15.4688C45.4883 15.4688 45.0703 15.9219 45.0703 16.6094V19H44.3906ZM48.6445 19V14.9375H49.3242V19H48.6445ZM48.9844 14.2539C48.7539 14.2539 48.5625 14.0625 48.5625 13.832C48.5625 13.5977 48.7539 13.4102 48.9844 13.4102C49.2188 13.4102 49.4102 13.5977 49.4102 13.832C49.4102 14.0625 49.2188 14.2539 48.9844 14.2539ZM50.2422 19V14.9375H50.8828V15.5859H50.8984C51.125 15.1484 51.5586 14.8672 52.1875 14.8672C53.0781 14.8672 53.5938 15.4414 53.5938 16.3633V19H52.9141V16.4844C52.9141 15.8281 52.6055 15.4688 51.9805 15.4688C51.3398 15.4688 50.9219 15.9219 50.9219 16.6094V19H50.2422ZM56.1133 18.4336C56.8203 18.4336 57.293 17.8477 57.293 16.9531C57.293 16.0586 56.8203 15.4648 56.1133 15.4648C55.4141 15.4648 54.957 16.043 54.957 16.9531C54.957 17.8633 55.4141 18.4336 56.1133 18.4336ZM56.1367 20.5312C55.2422 20.5312 54.5352 20.0273 54.4219 19.3359H55.1211C55.2539 19.707 55.6562 19.9531 56.1641 19.9531C56.8672 19.9531 57.293 19.5469 57.293 18.9414V18.3008H57.2773C57.0273 18.7422 56.5469 19.0312 55.9766 19.0312C54.9414 19.0312 54.2617 18.2148 54.2617 16.9531C54.2617 15.6797 54.9414 14.8672 55.9922 14.8672C56.5664 14.8672 57.043 15.1484 57.3125 15.6211H57.3242V14.9375H57.9727V18.918C57.9727 19.8867 57.2578 20.5312 56.1367 20.5312ZM60.3359 17.4492H61.043C61.1094 18.0586 61.6875 18.4609 62.4922 18.4609C63.2539 18.4609 63.8086 18.0586 63.8086 17.5039C63.8086 17.0273 63.4766 16.7344 62.7188 16.5391L61.9961 16.3516C60.957 16.0859 60.4961 15.6289 60.4961 14.8633C60.4961 13.9258 61.3164 13.2695 62.4883 13.2695C63.6094 13.2695 64.4219 13.9336 64.4531 14.8789H63.75C63.6875 14.2734 63.1992 13.9023 62.4648 13.9023C61.7344 13.9023 61.2266 14.2812 61.2266 14.832C61.2266 15.2578 61.5391 15.5117 62.3047 15.7109L62.8945 15.8672C64.0625 16.1602 64.5352 16.6094 64.5352 17.418C64.5352 18.4492 63.7227 19.0938 62.4258 19.0938C61.2305 19.0938 60.4023 18.4453 60.3359 17.4492ZM65.4688 13.957H66.1484V14.9375H66.9375V15.4961H66.1484V17.9102C66.1484 18.2812 66.3047 18.4492 66.6523 18.4492C66.7305 18.4492 66.8867 18.4375 66.9336 18.4297V19C66.8516 19.0195 66.6641 19.0312 66.5039 19.0312C65.7578 19.0312 65.4688 18.7266 65.4688 17.9453V15.4961H64.8633V14.9375H65.4688V13.957ZM68.9258 18.4922C69.5664 18.4922 70.0586 18.043 70.0586 17.457V17.125L68.9727 17.1914C68.4258 17.2266 68.1133 17.4688 68.1133 17.8516C68.1133 18.2383 68.4375 18.4922 68.9258 18.4922ZM68.7734 19.0703C67.9648 19.0703 67.4219 18.582 67.4219 17.8516C67.4219 17.1562 67.957 16.7188 68.8945 16.6641L70.0586 16.5977V16.2578C70.0586 15.7617 69.7305 15.4648 69.168 15.4648C68.6445 15.4648 68.3164 15.7109 68.2305 16.1094H67.5742C67.6211 15.4062 68.2227 14.8672 69.1836 14.8672C70.1367 14.8672 70.7383 15.3828 70.7383 16.1914V19H70.0938V18.3008H70.0781C69.8359 18.7656 69.3203 19.0703 68.7734 19.0703ZM71.8203 13.957H72.5V14.9375H73.2891V15.4961H72.5V17.9102C72.5 18.2812 72.6562 18.4492 73.0039 18.4492C73.082 18.4492 73.2383 18.4375 73.2852 18.4297V19C73.2031 19.0195 73.0156 19.0312 72.8555 19.0312C72.1094 19.0312 71.8203 18.7266 71.8203 17.9453V15.4961H71.2148V14.9375H71.8203V13.957ZM74.0508 19V14.9375H74.7305V19H74.0508ZM74.3906 14.2539C74.1602 14.2539 73.9688 14.0625 73.9688 13.832C73.9688 13.5977 74.1602 13.4102 74.3906 13.4102C74.625 13.4102 74.8164 13.5977 74.8164 13.832C74.8164 14.0625 74.625 14.2539 74.3906 14.2539ZM75.5781 16.0586C75.5781 15.3633 76.1992 14.8672 77.0938 14.8672C77.9336 14.8672 78.5508 15.3672 78.582 16.0547H77.9336C77.8867 15.6641 77.5703 15.4219 77.0703 15.4219C76.5742 15.4219 76.2461 15.668 76.2461 16.0234C76.2461 16.3047 76.4609 16.4922 76.9219 16.6094L77.5508 16.7617C78.3711 16.9688 78.668 17.2656 78.668 17.8633C78.668 18.5703 78 19.0703 77.0508 19.0703C76.1602 19.0703 75.5391 18.5859 75.4688 17.8672H76.1484C76.2227 18.2891 76.543 18.5156 77.0938 18.5156C77.6445 18.5156 77.9844 18.2812 77.9844 17.9141C77.9844 17.625 77.8164 17.4688 77.3594 17.3477L76.6445 17.1641C75.9297 16.9805 75.5781 16.6133 75.5781 16.0586ZM79.5938 13.957H80.2734V14.9375H81.0625V15.4961H80.2734V17.9102C80.2734 18.2812 80.4297 18.4492 80.7773 18.4492C80.8555 18.4492 81.0117 18.4375 81.0586 18.4297V19C80.9766 19.0195 80.7891 19.0312 80.6289 19.0312C79.8828 19.0312 79.5938 18.7266 79.5938 17.9453V15.4961H78.9883V14.9375H79.5938V13.957ZM81.8242 19V14.9375H82.5039V19H81.8242ZM82.1641 14.2539C81.9336 14.2539 81.7422 14.0625 81.7422 13.832C81.7422 13.5977 81.9336 13.4102 82.1641 13.4102C82.3984 13.4102 82.5898 13.5977 82.5898 13.832C82.5898 14.0625 82.3984 14.2539 82.1641 14.2539ZM86.7969 16.2695H86.1328C86.0352 15.8281 85.6914 15.4648 85.0938 15.4648C84.3906 15.4648 83.9141 16.0469 83.9141 16.9688C83.9141 17.9141 84.3984 18.4727 85.1016 18.4727C85.6562 18.4727 86.0195 18.1797 86.1367 17.6914H86.8047C86.6992 18.5 86.0195 19.0703 85.0977 19.0703C83.9727 19.0703 83.2227 18.2773 83.2227 16.9688C83.2227 15.6875 83.9688 14.8672 85.0898 14.8672C86.1055 14.8672 86.7109 15.5391 86.7969 16.2695ZM87.3594 16.0586C87.3594 15.3633 87.9805 14.8672 88.875 14.8672C89.7148 14.8672 90.332 15.3672 90.3633 16.0547H89.7148C89.668 15.6641 89.3516 15.4219 88.8516 15.4219C88.3555 15.4219 88.0273 15.668 88.0273 16.0234C88.0273 16.3047 88.2422 16.4922 88.7031 16.6094L89.332 16.7617C90.1523 16.9688 90.4492 17.2656 90.4492 17.8633C90.4492 18.5703 89.7812 19.0703 88.832 19.0703C87.9414 19.0703 87.3203 18.5859 87.25 17.8672H87.9297C88.0039 18.2891 88.3242 18.5156 88.875 18.5156C89.4258 18.5156 89.7656 18.2812 89.7656 17.9141C89.7656 17.625 89.5977 17.4688 89.1406 17.3477L88.4258 17.1641C87.7109 16.9805 87.3594 16.6133 87.3594 16.0586Z" fill="#3D7CDB"/>
<path d="M303.379 13.9883V16.1484H304.727C305.449 16.1484 305.859 15.7578 305.859 15.0664C305.859 14.3906 305.422 13.9883 304.695 13.9883H303.379ZM303.379 16.7695V19H302.676V13.3633H304.789C305.875 13.3633 306.586 14.0273 306.586 15.043C306.586 15.8281 306.16 16.4375 305.453 16.6602L306.758 19H305.934L304.727 16.7695H303.379ZM308.996 15.457C308.359 15.457 307.914 15.9453 307.871 16.6211H310.078C310.062 15.9414 309.637 15.457 308.996 15.457ZM310.062 17.8359H310.73C310.613 18.5469 309.926 19.0703 309.039 19.0703C307.875 19.0703 307.168 18.2617 307.168 16.9844C307.168 15.7227 307.887 14.8672 309.008 14.8672C310.105 14.8672 310.781 15.6641 310.781 16.8945V17.1523H307.867V17.1914C307.867 17.9688 308.324 18.4805 309.055 18.4805C309.57 18.4805 309.949 18.2188 310.062 17.8359ZM311.688 19V15.4961H311.121V14.9375H311.688V14.4844C311.688 13.7031 312.051 13.332 312.801 13.332C312.953 13.332 313.117 13.3477 313.215 13.3633V13.9141C313.133 13.9023 313.02 13.8906 312.906 13.8906C312.539 13.8906 312.363 14.0859 312.363 14.4883V14.9375H313.195V15.4961H312.367V19H311.688ZM313.898 19V14.9375H314.539V15.6016H314.555C314.688 15.1523 315.062 14.8672 315.539 14.8672C315.656 14.8672 315.758 14.8867 315.812 14.8945V15.5547C315.758 15.5352 315.613 15.5156 315.449 15.5156C314.922 15.5156 314.578 15.8945 314.578 16.4688V19H313.898ZM317.801 15.457C317.164 15.457 316.719 15.9453 316.676 16.6211H318.883C318.867 15.9414 318.441 15.457 317.801 15.457ZM318.867 17.8359H319.535C319.418 18.5469 318.73 19.0703 317.844 19.0703C316.68 19.0703 315.973 18.2617 315.973 16.9844C315.973 15.7227 316.691 14.8672 317.812 14.8672C318.91 14.8672 319.586 15.6641 319.586 16.8945V17.1523H316.672V17.1914C316.672 17.9688 317.129 18.4805 317.859 18.4805C318.375 18.4805 318.754 18.2188 318.867 17.8359ZM320.203 16.0586C320.203 15.3633 320.824 14.8672 321.719 14.8672C322.559 14.8672 323.176 15.3672 323.207 16.0547H322.559C322.512 15.6641 322.195 15.4219 321.695 15.4219C321.199 15.4219 320.871 15.668 320.871 16.0234C320.871 16.3047 321.086 16.4922 321.547 16.6094L322.176 16.7617C322.996 16.9688 323.293 17.2656 323.293 17.8633C323.293 18.5703 322.625 19.0703 321.676 19.0703C320.785 19.0703 320.164 18.5859 320.094 17.8672H320.773C320.848 18.2891 321.168 18.5156 321.719 18.5156C322.27 18.5156 322.609 18.2812 322.609 17.9141C322.609 17.625 322.441 17.4688 321.984 17.3477L321.27 17.1641C320.555 16.9805 320.203 16.6133 320.203 16.0586ZM324.035 19V13.3633H324.715V15.5859H324.73C324.957 15.1328 325.402 14.8672 326.02 14.8672C326.91 14.8672 327.449 15.4688 327.449 16.375V19H326.77V16.5C326.77 15.8555 326.445 15.4688 325.809 15.4688C325.133 15.4688 324.715 15.9297 324.715 16.6328V19H324.035Z" fill="#3D7CDB"/>
<path d="M342.75 23.5H347.25C351 23.5 352.5 22 352.5 18.25V13.75C352.5 10 351 8.5 347.25 8.5H342.75C339 8.5 337.5 10 337.5 13.75V18.25C337.5 22 339 23.5 342.75 23.5Z" stroke="#3D7CDB" stroke-width="1.5" stroke-linecap="round" stroke-linejoin="round"/>
<path d="M349.125 16C349.125 18.28 347.28 20.125 345 20.125C342.72 20.125 341.332 17.83 341.332 17.83M341.332 17.83H343.192M341.332 17.83V19.8925M340.875 16C340.875 13.72 342.705 11.875 345 11.875C347.753 11.875 349.125 14.17 349.125 14.17M349.125 14.17V12.1075M349.125 14.17H347.295" stroke="#3D7CDB" stroke-width="1.5" stroke-linecap="round" stroke-linejoin="round"/>
</g>
<rect x="0.25" y="0.25" width="360.5" height="149.5" rx="7.75" stroke="#3D7CDB" stroke-width="0.5"/>
<defs>
<clipPath id="clip0_67_260">
<rect width="361" height="150" rx="8" fill="white"/>
</clipPath>
</defs>
</svg>
