<svg width="161" height="110" viewBox="0 0 161 110" fill="none" xmlns="http://www.w3.org/2000/svg">
<g clip-path="url(#clip0_101_436)">
<path fill-rule="evenodd" clip-rule="evenodd" d="M158.084 103.153C153.78 106.206 148.521 108 142.843 108H4.21064C-0.341784 91.7488 -4.27495 71.3943 9.74446 68.5117C21.9602 66 29.0806 70.4709 33.4451 73.2113C35.768 74.6699 37.3102 75.6382 38.4244 74.8027C39.1792 74.741 40.2358 72.4344 38.4244 63.701C38.3951 63.5596 38.3652 63.4157 38.3349 63.2695C36.1424 52.7114 31.4262 30 44.7454 30C45.4762 30 46.2612 30.0684 47.1039 30.2108C56.398 31.7822 60.0671 37.9799 62.8369 42.6587C64.9592 46.2437 66.5536 48.9369 69.746 47.9736C72.8768 47.029 74.5732 43.4718 76.2445 39.9669C78.5015 35.234 80.7131 30.5964 86.3502 32.6162C92.1832 34.7062 93.8816 42.9435 95.1721 49.2023C96.0523 53.4714 96.7427 56.82 98.426 56.67C99.9613 56.5331 101.316 53.5612 102.939 50.0012C105.703 43.9364 109.246 36.1648 115.785 37.797C121.273 39.1671 123.331 49.853 125.28 59.9734C127.017 68.9886 128.666 77.5552 132.578 78.6884C135.979 79.6738 138.494 78.827 140.744 78.0691C143.987 76.977 146.682 76.0694 150.691 81.0938C153.371 84.4508 156.549 93.2192 158.084 103.153Z" fill="url(#paint0_linear_101_436)"/>
<path d="M89.6375 77.8749C88.1878 77.0976 87.1651 75.6675 86.7666 73.811C85.9042 69.7938 88.0091 64.668 92.0042 61.0556C101.321 52.6312 107.019 45.2167 107.248 41.222C107.293 40.4279 107.119 39.8332 106.7 39.3501C103.26 35.3928 90.7291 44.3146 85.1983 49.2556C84.5849 49.8039 83.6656 49.7241 83.1454 49.0778C82.6252 48.4316 82.7008 47.4631 83.3142 46.9151C83.5021 46.7471 87.974 42.7684 93.2125 39.5059C100.778 34.794 106.039 34.0435 108.848 37.2784C109.809 38.3845 110.249 39.7734 110.156 41.4069C109.774 48.0866 99.808 58.0438 93.9018 63.3845C90.2272 66.7074 89.1002 70.7678 89.6082 73.1343C89.863 74.3212 90.4857 75.0646 91.4609 75.3422C92.6197 75.6728 97.0823 75.9822 105.86 66.0833C113.603 57.3512 163.81 8.18815 165.277 6.80424C165.868 6.24619 165.282 10.1253 165.811 10.7484C166.341 11.3714 164.681 11.9845 164.089 12.5425C162.692 13.861 115.522 59.6825 107.989 68.1783C101.116 75.9285 94.9763 79.5249 90.6993 78.3045C90.3245 78.1974 89.9698 78.0531 89.6375 77.8749Z" fill="#3147A8"/>
<path d="M73.4935 104.736C70.7914 97.4668 67.0082 90.3072 65.7707 88.0307L70.037 79.202C70.4874 78.27 69.9038 77.1099 68.9166 76.9826C61.7781 76.0597 57.3569 80.3863 55.6114 82.5752L47.3343 77.5083L85.0979 49.3381C85.7515 48.8506 85.9088 47.8985 85.4501 47.2069C81.7249 41.5905 74.3936 37.3045 65.8396 35.7418C56.4795 34.0315 47.2292 35.9541 40.4607 41.0169C32.4222 47.0291 27.4233 55.8602 27.0884 64.6396C26.8077 72.0015 29.8057 78.8401 35.53 83.896C36.9432 85.1439 38.4799 86.1698 40.0533 87.0136C45.6258 90.0019 51.6438 90.7034 54.1342 90.8677C55.3726 95.8593 58.6961 100.139 63.8098 103.301C64.3515 103.636 64.8873 103.943 65.4102 104.224C68.8243 106.055 71.6739 106.758 71.8113 106.791C72.9293 107.062 73.9129 105.863 73.4935 104.736Z" fill="#6B89FF"/>
<path d="M62.1808 62.9349C63.1603 63.4602 64.1649 63.8779 65.1824 64.194L85.098 49.3379C85.7515 48.8504 85.9088 47.8984 85.4501 47.2067C81.725 41.5904 74.3937 37.3044 65.8397 35.7416C62.6111 35.1516 59.396 34.9944 56.291 35.2484C55.6319 36.1471 55.0416 37.1222 54.5345 38.1715C50.1548 47.2341 53.5783 58.3211 62.1808 62.9349Z" fill="#C4E9FB"/>
<path d="M64.7157 47.9367C66.5079 48.8979 68.7003 48.1465 69.6127 46.2585C70.5251 44.3704 69.8119 42.0606 68.0197 41.0995C66.2276 40.1383 64.0351 40.8896 63.1227 42.7777C62.2103 44.6657 62.9235 46.9755 64.7157 47.9367Z" fill="white"/>
<path d="M65.3764 46.5693C66.4517 47.146 67.7672 46.6952 68.3146 45.5623C68.8621 44.4295 68.4341 43.0436 67.3588 42.4668C66.2835 41.8901 64.968 42.341 64.4206 43.4738C63.8731 44.6067 64.3011 45.9925 65.3764 46.5693Z" fill="#3147A8"/>
<path d="M111.729 63.9538C114.351 65.3604 117.56 64.2609 118.895 61.498C120.23 58.7351 119.186 55.3551 116.564 53.9486C113.941 52.542 110.733 53.6415 109.398 56.4044C108.062 59.1673 109.106 62.5473 111.729 63.9538Z" fill="#6B89FF"/>
<path d="M109.755 55.7719L116.387 64.0426C117.409 63.5442 118.289 62.7026 118.854 61.576L112.476 53.6206C111.396 53.996 110.431 54.7339 109.755 55.7719Z" fill="#3147A8"/>
<path d="M42.0264 55.5778C41.0666 55.0639 40.2545 54.2265 39.7547 53.1259C38.5428 50.4575 39.6188 47.2377 42.1533 45.9486C42.8783 45.5799 43.7478 45.8994 44.0945 46.6634C44.4416 47.427 44.1347 48.3451 43.4093 48.7141C42.323 49.2666 41.8618 50.6466 42.3813 51.7902C42.9008 52.9337 44.2069 53.4147 45.2932 52.8621C46.0183 52.4935 46.8878 52.813 47.2345 53.577C47.5813 54.3407 47.2746 55.2588 46.5491 55.6276C45.0601 56.3848 43.3934 56.3098 42.0264 55.5778Z" fill="#466CFF"/>
<path d="M48.139 66.6042C47.1794 66.0904 46.3672 65.2529 45.8672 64.1525C44.6553 61.4839 45.7313 58.264 48.2659 56.975C48.9915 56.6062 49.8604 56.926 50.2071 57.6899C50.5542 58.4535 50.2473 59.3715 49.5219 59.7405C48.4356 60.293 47.9745 61.6731 48.4939 62.8166C49.0136 63.9598 50.3197 64.4411 51.4059 63.8885C52.1309 63.5199 53.0004 63.8394 53.3471 64.6034C53.694 65.3671 53.3872 66.2852 52.6617 66.654C51.1727 67.4112 49.5062 67.3363 48.139 66.6042Z" fill="#466CFF"/>
<path d="M38.3683 66.5618C37.3803 66.0328 36.5889 65.1812 36.1022 64.1093C34.8903 61.4409 35.9663 58.221 38.5007 56.9321C39.226 56.5632 40.0952 56.8829 40.4419 57.6469C40.789 58.4105 40.4821 59.3286 39.7567 59.6976C38.6705 60.2501 38.2093 61.63 38.7288 62.7735C38.9805 63.3274 39.4223 63.7452 39.972 63.9467C40.522 64.1492 41.1145 64.1135 41.6407 63.8456C42.3658 63.477 43.2352 63.7965 43.5819 64.5605C43.929 65.3241 43.6221 66.2421 42.8967 66.6112C41.6689 67.2356 40.2859 67.3195 39.0026 66.8468C38.7834 66.7658 38.5717 66.6708 38.3683 66.5618Z" fill="#466CFF"/>
<path d="M106.29 44.9229C103.489 41.892 98.8689 41.8285 95.992 44.7804C93.4886 47.3496 91.6423 56.6981 91.2976 58.5459C91.1049 59.5789 91.9808 60.5315 92.97 60.3546C94.7324 60.0401 103.652 58.3413 106.155 55.7721C109.031 52.8206 109.092 47.9534 106.29 44.9229Z" fill="#64DDE3"/>
<path d="M101.931 68.9112C102.997 69.488 104.277 69.0898 104.788 68.0219C105.3 66.9541 104.85 65.6209 103.784 65.0442C102.718 64.4674 101.438 64.8656 100.927 65.9334C100.415 67.0013 100.864 68.3345 101.931 68.9112Z" fill="#89EBF0"/>
<path d="M93.9169 108.71C94.9833 109.287 96.2626 108.889 96.7743 107.821C97.2861 106.753 96.8365 105.42 95.7701 104.843C94.7037 104.267 93.4244 104.665 92.9126 105.733C92.4009 106.8 92.8505 108.134 93.9169 108.71Z" fill="#89EBF0"/>
</g>
<defs>
<linearGradient id="paint0_linear_101_436" x1="79.042" y1="30" x2="79.042" y2="108" gradientUnits="userSpaceOnUse">
<stop stop-color="#3D7CDB" stop-opacity="0.5"/>
<stop offset="1" stop-color="#355689" stop-opacity="0.81"/>
</linearGradient>
<clipPath id="clip0_101_436">
<rect width="161" height="110" fill="white"/>
</clipPath>
</defs>
</svg>
