<svg width="141" height="71" viewBox="0 0 141 71" fill="none" xmlns="http://www.w3.org/2000/svg">
<g clip-path="url(#clip0_101_433)">
<path fill-rule="evenodd" clip-rule="evenodd" d="M140.188 66.5881C136.371 69.3667 131.707 71 126.672 71H3.73396C-0.303092 56.2072 -3.79099 37.6794 8.64131 35.0555C19.4741 32.7692 25.7885 36.8389 29.6589 39.3334C31.7188 40.6611 33.0864 41.5425 34.0745 40.7819C34.7438 40.7258 35.6808 38.6262 34.0745 30.6766C34.0485 30.5478 34.022 30.4169 33.9951 30.2838C32.0508 20.6732 27.8685 0 39.6799 0C40.328 0 41.0241 0.062226 41.7714 0.191918C50.0133 1.62228 53.2671 7.2638 55.7233 11.5227C57.6053 14.7859 59.0192 17.2374 61.8502 16.3606C64.6266 15.5008 66.131 12.2628 67.613 9.07245C69.6145 4.76427 71.5758 0.542901 76.5747 2.38145C81.7474 4.28389 83.2535 11.7819 84.3979 17.479C85.1785 21.365 85.7907 24.4131 87.2834 24.2765C88.6449 24.1519 89.8463 21.4467 91.2855 18.2062C93.7366 12.6857 96.8785 5.61151 102.677 7.09731C107.544 8.34437 109.369 18.0713 111.097 27.2835C112.638 35.4896 114.1 43.2874 117.569 44.3189C120.585 45.2159 122.815 44.4451 124.811 43.7552C127.687 42.7611 130.076 41.935 133.632 46.5085C136.008 49.5642 138.826 57.5457 140.188 66.5881Z" fill="url(#paint0_linear_101_433)"/>
<g clip-path="url(#clip1_101_433)">
<path d="M115.903 38.1665H106.57C102.98 38.1665 100.07 41.0767 100.07 44.6665V53.9998C100.07 57.5897 102.98 60.4998 106.57 60.4998H115.903C119.493 60.4998 122.403 57.5897 122.403 53.9998V44.6665C122.403 41.0767 119.493 38.1665 115.903 38.1665Z" fill="#4A6CA0" stroke="#C1D7F9" stroke-width="3"/>
<g filter="url(#filter0_d_101_433)">
<path d="M98.3333 25.5H89C85.4101 25.5 82.5 28.4101 82.5 32V41.3333C82.5 44.9232 85.4101 47.8333 89 47.8333H98.3333C101.923 47.8333 104.833 44.9232 104.833 41.3333V32C104.833 28.4101 101.923 25.5 98.3333 25.5Z" fill="#79A1DD" stroke="#C1D7F9" stroke-width="3"/>
</g>
</g>
</g>
<defs>
<filter id="filter0_d_101_433" x="81" y="24" width="51.3333" height="51.3335" filterUnits="userSpaceOnUse" color-interpolation-filters="sRGB">
<feFlood flood-opacity="0" result="BackgroundImageFix"/>
<feColorMatrix in="SourceAlpha" type="matrix" values="0 0 0 0 0 0 0 0 0 0 0 0 0 0 0 0 0 0 127 0" result="hardAlpha"/>
<feOffset dx="13" dy="13"/>
<feGaussianBlur stdDeviation="6.5"/>
<feColorMatrix type="matrix" values="0 0 0 0 0.0973366 0 0 0 0 0.061493 0 0 0 0 0.670833 0 0 0 0.05 0"/>
<feBlend mode="normal" in2="BackgroundImageFix" result="effect1_dropShadow_101_433"/>
<feBlend mode="normal" in="SourceGraphic" in2="effect1_dropShadow_101_433" result="shape"/>
</filter>
<linearGradient id="paint0_linear_101_433" x1="70.0938" y1="0" x2="70.0938" y2="71" gradientUnits="userSpaceOnUse">
<stop stop-color="#3D7CDB" stop-opacity="0.5"/>
<stop offset="1" stop-color="#355689" stop-opacity="0.81"/>
</linearGradient>
<clipPath id="clip0_101_433">
<rect width="141" height="71" fill="white"/>
</clipPath>
<clipPath id="clip1_101_433">
<rect width="52" height="47" fill="white" transform="translate(81 24)"/>
</clipPath>
</defs>
</svg>
