<svg width="20" height="20" viewBox="0 0 20 20" fill="none" xmlns="http://www.w3.org/2000/svg">
<path d="M7.08334 15.8083H6.66667C3.33334 15.8083 1.66667 14.975 1.66667 10.8083V6.64164C1.66667 3.30831 3.33334 1.64164 6.66667 1.64164H13.3333C16.6667 1.64164 18.3333 3.30831 18.3333 6.64164V10.8083C18.3333 14.1416 16.6667 15.8083 13.3333 15.8083H12.9167C12.6583 15.8083 12.4083 15.9333 12.25 16.1417L11 17.8083C10.45 18.5417 9.55 18.5417 9 17.8083L7.75 16.1417C7.61666 15.9583 7.31667 15.8083 7.08334 15.8083Z" stroke="#E0EBFD" stroke-width="1.5" stroke-miterlimit="10" stroke-linecap="round" stroke-linejoin="round"/>
<path d="M6.66667 7.25001L5 8.91667L6.66667 10.5833" stroke="#E0EBFD" stroke-width="1.5" stroke-miterlimit="10" stroke-linecap="round" stroke-linejoin="round"/>
<path d="M13.3333 7.25001L15 8.91667L13.3333 10.5833" stroke="#E0EBFD" stroke-width="1.5" stroke-miterlimit="10" stroke-linecap="round" stroke-linejoin="round"/>
<path d="M10.8333 6.975L9.16667 10.8584" stroke="#E0EBFD" stroke-width="1.5" stroke-miterlimit="10" stroke-linecap="round" stroke-linejoin="round"/>
</svg>
