<svg width="16" height="16" viewBox="0 0 16 16" fill="none" xmlns="http://www.w3.org/2000/svg">
<path d="M14.1267 5.35998L12.0067 3.23998C11.2067 2.43998 10.1067 2.48 9.56666 3.34L8.38666 5.20666L12.1667 8.98664L14.0333 7.80667C14.84 7.29334 14.8867 6.11331 14.1267 5.35998Z" stroke="#3D7CDB" stroke-linecap="round" stroke-linejoin="round"/>
<path d="M12.1667 8.97998L12.3267 11.7266C12.48 13.26 11.9467 13.7933 10.4933 13.9666L4.68 14.6533C3.45333 14.7933 2.57333 13.9134 2.72 12.6934L3.37333 7.17334" stroke="#3D7CDB" stroke-linecap="round" stroke-linejoin="round"/>
<path d="M8.38667 5.20666L7.22 5.13334" stroke="#3D7CDB" stroke-linecap="round" stroke-linejoin="round"/>
<path d="M3.51999 13.8534L5.63999 11.7266" stroke="#3D7CDB" stroke-linecap="round" stroke-linejoin="round"/>
<path d="M7.33333 4.33333C7.33333 4.60667 7.29333 4.88001 7.22 5.13334C7.14666 5.40001 7.04 5.64667 6.9 5.88001C6.74 6.14667 6.54 6.38667 6.30667 6.58667C5.78 7.05334 5.09333 7.33333 4.33333 7.33333C3.99333 7.33333 3.67333 7.28001 3.37333 7.17334C2.69333 6.94667 2.12666 6.48001 1.76666 5.88001C1.49332 5.42667 1.33333 4.89333 1.33333 4.33333C1.33333 3.38667 1.76666 2.53999 2.46 1.99333C2.97333 1.57999 3.62666 1.33333 4.33333 1.33333C5.99333 1.33333 7.33333 2.67333 7.33333 4.33333Z" stroke="#3D7CDB" stroke-miterlimit="10" stroke-linecap="round" stroke-linejoin="round"/>
<path d="M4.34666 5.45333V3.21334" stroke="#3D7CDB" stroke-miterlimit="10" stroke-linecap="round" stroke-linejoin="round"/>
<path d="M5.44 4.33333H3.2" stroke="#3D7CDB" stroke-miterlimit="10" stroke-linecap="round" stroke-linejoin="round"/>
</svg>
