<svg width="361" height="95" viewBox="0 0 361 95" fill="none" xmlns="http://www.w3.org/2000/svg">
<rect width="361" height="95" rx="8" fill="#C1D7F9"/>
<g clip-path="url(#clip0_61_222)">
<path d="M21.556 15.5342C21.3947 15.5342 21.2636 15.4036 21.2631 15.2421C21.2626 15.0804 21.3934 14.9488 21.5552 14.9483C22.2911 14.946 22.9913 14.5017 23.5266 13.6971C24.0405 12.9248 24.3424 11.9149 24.3884 10.8272H23.0979C22.9361 10.8272 22.805 10.6961 22.805 10.5342C22.805 10.3724 22.9361 10.2413 23.0979 10.2413H24.6875C24.8493 10.2413 24.9805 10.3724 24.9805 10.5342C24.9805 11.847 24.6374 13.0854 24.0145 14.0217C23.3674 14.9942 22.4947 15.5313 21.557 15.5342C21.5567 15.5342 21.5564 15.5342 21.556 15.5342Z" fill="#FFB023"/>
<path d="M18.4049 15.5342C18.4045 15.5342 18.4043 15.5342 18.404 15.5342C17.4664 15.5313 16.5936 14.9942 15.9465 14.0217C15.3236 13.0854 14.9805 11.847 14.9805 10.5342C14.9805 10.3724 15.1116 10.2413 15.2734 10.2413H16.863C17.0248 10.2413 17.156 10.3724 17.156 10.5342C17.156 10.6961 17.0248 10.8272 16.863 10.8272H15.5726C15.6186 11.9149 15.9205 12.9248 16.4343 13.6971C16.9697 14.5017 17.6698 14.946 18.4058 14.9483C18.5676 14.9488 18.6984 15.0804 18.6978 15.2421C18.6974 15.4036 18.5663 15.5342 18.4049 15.5342Z" fill="#FFB023"/>
<path d="M23.1185 9.51953H16.8424C16.6807 9.51953 16.5494 9.65068 16.5494 9.8125C16.5494 11.5335 16.8869 13.1561 17.4995 14.3814C17.8921 15.1664 18.3721 15.7362 18.903 16.0624V17.6575C18.903 17.8193 19.0342 17.9505 19.1959 17.9505H20.765C20.9268 17.9505 21.058 17.8193 21.058 17.6575V16.0624C21.5888 15.7363 22.0689 15.1664 22.4614 14.3814C23.074 13.1561 23.4115 11.5335 23.4115 9.8125C23.4115 9.65068 23.2803 9.51953 23.1185 9.51953Z" fill="#FFB023"/>
<path d="M21.5495 17.3645H18.4115C17.8174 17.3645 17.334 17.8479 17.334 18.4421V19.2266C17.334 19.3883 17.4651 19.5195 17.627 19.5195H22.334C22.4958 19.5195 22.627 19.3883 22.627 19.2266V18.4421C22.627 17.8479 22.1436 17.3645 21.5495 17.3645Z" fill="#FF8E1D"/>
<path d="M22.6478 19.5195H17.3132C17.1514 19.5195 17.0202 19.3883 17.0202 19.2266C17.0202 19.0647 17.1514 18.9336 17.3132 18.9336H22.6478C22.8096 18.9336 22.9407 19.0647 22.9407 19.2266C22.9407 19.3883 22.8096 19.5195 22.6478 19.5195Z" fill="#FF8E1D"/>
</g>
<path d="M27.752 10.2495H30.5181C31.9736 10.2495 32.9995 11.27 32.9995 12.7363C32.9995 14.208 31.9629 15.2339 30.5073 15.2339H28.7188V18H27.752V10.2495ZM28.7188 11.1089V14.3745H30.2656C31.3721 14.3745 32.0059 13.7676 32.0059 12.7363C32.0059 11.7104 31.3774 11.1089 30.2656 11.1089H28.7188ZM33.9663 18V12.4141H34.8472V13.3271H34.8687C35.0513 12.7095 35.5669 12.3174 36.2222 12.3174C36.3833 12.3174 36.5229 12.3442 36.5981 12.355V13.2627C36.5229 13.2358 36.3242 13.209 36.0986 13.209C35.3735 13.209 34.9009 13.73 34.9009 14.5195V18H33.9663ZM39.4072 18.0967C37.8604 18.0967 36.8184 16.9849 36.8184 15.207C36.8184 13.4238 37.8604 12.3174 39.4072 12.3174C40.9487 12.3174 41.9907 13.4238 41.9907 15.207C41.9907 16.9849 40.9487 18.0967 39.4072 18.0967ZM39.4072 17.2749C40.3955 17.2749 41.04 16.5229 41.04 15.207C41.04 13.8911 40.3955 13.1392 39.4072 13.1392C38.4189 13.1392 37.769 13.8911 37.769 15.207C37.769 16.5229 38.4189 17.2749 39.4072 17.2749ZM45.208 17.2212C46.1802 17.2212 46.8301 16.4155 46.8301 15.1855C46.8301 13.9556 46.1802 13.1392 45.208 13.1392C44.2466 13.1392 43.6182 13.9341 43.6182 15.1855C43.6182 16.437 44.2466 17.2212 45.208 17.2212ZM45.2402 20.1055C44.0103 20.1055 43.0381 19.4126 42.8823 18.4619H43.8438C44.0264 18.9722 44.5796 19.3105 45.2778 19.3105C46.2446 19.3105 46.8301 18.752 46.8301 17.9194V17.0386H46.8086C46.4648 17.6455 45.8042 18.043 45.02 18.043C43.5967 18.043 42.6621 16.9204 42.6621 15.1855C42.6621 13.4346 43.5967 12.3174 45.0415 12.3174C45.8311 12.3174 46.4863 12.7041 46.8569 13.354H46.873V12.4141H47.7646V17.8872C47.7646 19.2192 46.7817 20.1055 45.2402 20.1055ZM48.9839 18V12.4141H49.8647V13.3271H49.8862C50.0688 12.7095 50.5845 12.3174 51.2397 12.3174C51.4009 12.3174 51.5405 12.3442 51.6157 12.355V13.2627C51.5405 13.2358 51.3418 13.209 51.1162 13.209C50.3911 13.209 49.9185 13.73 49.9185 14.5195V18H48.9839ZM54.3496 13.1284C53.4741 13.1284 52.8618 13.7998 52.8027 14.729H55.8374C55.8159 13.7944 55.2305 13.1284 54.3496 13.1284ZM55.8159 16.3994H56.7344C56.5732 17.377 55.6279 18.0967 54.4087 18.0967C52.8081 18.0967 51.8359 16.9849 51.8359 15.2285C51.8359 13.4937 52.8242 12.3174 54.3657 12.3174C55.875 12.3174 56.8042 13.4131 56.8042 15.105V15.4595H52.7974V15.5132C52.7974 16.582 53.4258 17.2856 54.4302 17.2856C55.1392 17.2856 55.6602 16.9258 55.8159 16.3994ZM57.6528 13.9556C57.6528 12.9995 58.5068 12.3174 59.7368 12.3174C60.8916 12.3174 61.7402 13.0049 61.7832 13.9502H60.8916C60.8271 13.4131 60.3921 13.0801 59.7046 13.0801C59.0225 13.0801 58.5713 13.4185 58.5713 13.9072C58.5713 14.2939 58.8667 14.5518 59.5005 14.7129L60.3652 14.9224C61.4932 15.207 61.9014 15.6152 61.9014 16.437C61.9014 17.4092 60.9829 18.0967 59.6777 18.0967C58.4531 18.0967 57.5991 17.4307 57.5024 16.4424H58.437C58.5391 17.0225 58.9795 17.334 59.7368 17.334C60.4941 17.334 60.9614 17.0117 60.9614 16.5068C60.9614 16.1094 60.7305 15.8945 60.1021 15.728L59.1191 15.4756C58.1362 15.2231 57.6528 14.7183 57.6528 13.9556ZM62.7769 13.9556C62.7769 12.9995 63.6309 12.3174 64.8608 12.3174C66.0156 12.3174 66.8643 13.0049 66.9072 13.9502H66.0156C65.9512 13.4131 65.5161 13.0801 64.8286 13.0801C64.1465 13.0801 63.6953 13.4185 63.6953 13.9072C63.6953 14.2939 63.9907 14.5518 64.6245 14.7129L65.4893 14.9224C66.6172 15.207 67.0254 15.6152 67.0254 16.437C67.0254 17.4092 66.1069 18.0967 64.8018 18.0967C63.5771 18.0967 62.7231 17.4307 62.6265 16.4424H63.561C63.6631 17.0225 64.1035 17.334 64.8608 17.334C65.6182 17.334 66.0854 17.0117 66.0854 16.5068C66.0854 16.1094 65.8545 15.8945 65.2261 15.728L64.2432 15.4756C63.2603 15.2231 62.7769 14.7183 62.7769 13.9556Z" fill="#1A1B1C"/>
<rect x="15" y="25" width="178" height="58" rx="6" fill="#E0EBFD"/>
<path d="M29.6592 59.1523C27.1328 59.1523 25.5332 57.3179 25.5332 54.417C25.5332 51.5415 27.1519 49.688 29.6592 49.688C31.6523 49.688 33.1694 50.9004 33.4614 52.7285H32.3062C32.0142 51.5288 30.9668 50.7417 29.6592 50.7417C27.8691 50.7417 26.7075 52.189 26.7075 54.417C26.7075 56.6641 27.8564 58.0986 29.6655 58.0986C31.0112 58.0986 31.9761 57.4512 32.3062 56.334H33.4614C33.0425 58.1431 31.6841 59.1523 29.6592 59.1523ZM37.3779 59.1143C35.5498 59.1143 34.3184 57.8003 34.3184 55.6992C34.3184 53.5918 35.5498 52.2842 37.3779 52.2842C39.1997 52.2842 40.4312 53.5918 40.4312 55.6992C40.4312 57.8003 39.1997 59.1143 37.3779 59.1143ZM37.3779 58.1431C38.5459 58.1431 39.3076 57.2544 39.3076 55.6992C39.3076 54.144 38.5459 53.2554 37.3779 53.2554C36.21 53.2554 35.4419 54.144 35.4419 55.6992C35.4419 57.2544 36.21 58.1431 37.3779 58.1431ZM46.9692 52.3984V59H45.9219V57.9272H45.8965C45.5029 58.689 44.8174 59.1143 43.8018 59.1143C42.3608 59.1143 41.5166 58.1812 41.5166 56.6831V52.3984H42.6211V56.4863C42.6211 57.5591 43.1226 58.1367 44.1445 58.1367C45.2173 58.1367 45.8647 57.4004 45.8647 56.2769V52.3984H46.9692ZM48.4038 59V52.3984H49.4448V53.4775H49.4702C49.686 52.7476 50.2954 52.2842 51.0698 52.2842C51.2603 52.2842 51.4253 52.3159 51.5142 52.3286V53.4014C51.4253 53.3696 51.1904 53.3379 50.9238 53.3379C50.0669 53.3379 49.5083 53.9536 49.5083 54.8867V59H48.4038ZM52.3013 54.2202C52.3013 53.0903 53.3105 52.2842 54.7642 52.2842C56.1289 52.2842 57.1318 53.0967 57.1826 54.2139H56.1289C56.0527 53.5791 55.5386 53.1855 54.7261 53.1855C53.9199 53.1855 53.3867 53.5854 53.3867 54.1631C53.3867 54.6201 53.7358 54.9248 54.4849 55.1152L55.5068 55.3628C56.8398 55.6992 57.3223 56.1816 57.3223 57.1528C57.3223 58.3018 56.2368 59.1143 54.6943 59.1143C53.2471 59.1143 52.2378 58.3271 52.1235 57.1592H53.228C53.3486 57.8447 53.8691 58.2129 54.7642 58.2129C55.6592 58.2129 56.2114 57.832 56.2114 57.2354C56.2114 56.7656 55.9385 56.5117 55.1958 56.3149L54.0342 56.0166C52.8726 55.7183 52.3013 55.1216 52.3013 54.2202ZM61.1182 53.2427C60.0835 53.2427 59.3599 54.0361 59.29 55.1343H62.8765C62.8511 54.0298 62.1592 53.2427 61.1182 53.2427ZM62.8511 57.1084H63.9365C63.7461 58.2637 62.6289 59.1143 61.188 59.1143C59.2964 59.1143 58.1475 57.8003 58.1475 55.7246C58.1475 53.6743 59.3154 52.2842 61.1372 52.2842C62.9209 52.2842 64.019 53.5791 64.019 55.5786V55.9976H59.2837V56.061C59.2837 57.3242 60.0264 58.1558 61.2134 58.1558C62.0513 58.1558 62.667 57.7305 62.8511 57.1084ZM73.2866 54.563H72.2075C72.0488 53.8457 71.4902 53.2554 70.519 53.2554C69.3765 53.2554 68.6021 54.2012 68.6021 55.6992C68.6021 57.2354 69.3892 58.1431 70.5317 58.1431C71.4331 58.1431 72.0234 57.667 72.2139 56.8735H73.2993C73.1279 58.1875 72.0234 59.1143 70.5254 59.1143C68.6973 59.1143 67.4785 57.8257 67.4785 55.6992C67.4785 53.6172 68.6909 52.2842 70.5127 52.2842C72.1631 52.2842 73.147 53.376 73.2866 54.563ZM77.0508 59.1143C75.2227 59.1143 73.9912 57.8003 73.9912 55.6992C73.9912 53.5918 75.2227 52.2842 77.0508 52.2842C78.8726 52.2842 80.104 53.5918 80.104 55.6992C80.104 57.8003 78.8726 59.1143 77.0508 59.1143ZM77.0508 58.1431C78.2188 58.1431 78.9805 57.2544 78.9805 55.6992C78.9805 54.144 78.2188 53.2554 77.0508 53.2554C75.8828 53.2554 75.1147 54.144 75.1147 55.6992C75.1147 57.2544 75.8828 58.1431 77.0508 58.1431ZM86.4453 52.3984L84.0205 59H82.8906L80.4595 52.3984H81.6211L83.4429 57.8257H83.4683L85.2964 52.3984H86.4453ZM89.7715 53.2427C88.7368 53.2427 88.0132 54.0361 87.9434 55.1343H91.5298C91.5044 54.0298 90.8125 53.2427 89.7715 53.2427ZM91.5044 57.1084H92.5898C92.3994 58.2637 91.2822 59.1143 89.8413 59.1143C87.9497 59.1143 86.8008 57.8003 86.8008 55.7246C86.8008 53.6743 87.9688 52.2842 89.7905 52.2842C91.5742 52.2842 92.6724 53.5791 92.6724 55.5786V55.9976H87.937V56.061C87.937 57.3242 88.6797 58.1558 89.8667 58.1558C90.7046 58.1558 91.3203 57.7305 91.5044 57.1084ZM93.7896 59V52.3984H94.8306V53.4775H94.856C95.0718 52.7476 95.6812 52.2842 96.4556 52.2842C96.646 52.2842 96.811 52.3159 96.8999 52.3286V53.4014C96.811 53.3696 96.5762 53.3379 96.3096 53.3379C95.4526 53.3379 94.894 53.9536 94.894 54.8867V59H93.7896ZM100.131 53.2427C99.0962 53.2427 98.3726 54.0361 98.3027 55.1343H101.889C101.864 54.0298 101.172 53.2427 100.131 53.2427ZM101.864 57.1084H102.949C102.759 58.2637 101.642 59.1143 100.201 59.1143C98.3091 59.1143 97.1602 57.8003 97.1602 55.7246C97.1602 53.6743 98.3281 52.2842 100.15 52.2842C101.934 52.2842 103.032 53.5791 103.032 55.5786V55.9976H98.2964V56.061C98.2964 57.3242 99.0391 58.1558 100.226 58.1558C101.064 58.1558 101.68 57.7305 101.864 57.1084ZM106.65 59.1143C104.968 59.1143 103.825 57.7686 103.825 55.6992C103.825 53.6299 104.961 52.2842 106.625 52.2842C107.57 52.2842 108.332 52.7476 108.726 53.4712H108.751V49.8403H109.855V59H108.802V57.8828H108.783C108.357 58.6445 107.602 59.1143 106.65 59.1143ZM106.859 53.2554C105.691 53.2554 104.955 54.2075 104.955 55.6992C104.955 57.1973 105.691 58.1431 106.859 58.1431C107.996 58.1431 108.757 57.1782 108.757 55.6992C108.757 54.2266 107.996 53.2554 106.859 53.2554Z" fill="black"/>
<circle cx="158" cy="54" r="15.9809" transform="rotate(124.463 158 54)" stroke="#A5C4F2" stroke-width="4"/>
<path d="M172.958 51.2176C173.509 54.176 173.169 57.2311 171.983 59.9967C170.797 62.7623 168.818 65.114 166.295 66.7546C163.772 68.3952 160.82 69.2508 157.811 69.2134C154.802 69.176 151.872 68.2471 149.391 66.5443C146.91 64.8415 144.989 62.4413 143.872 59.6471C142.756 56.8529 142.492 53.7902 143.116 50.8464C143.74 47.9026 145.222 45.2098 147.376 43.1086C149.531 41.0075 152.259 39.5922 155.218 39.0419" stroke="#3D7CDB" stroke-width="4" stroke-linecap="round"/>
<path d="M149.714 56.7566V53.3406H149.696L148.618 54.0847V53.2879L149.711 52.5291H150.59V56.7566H149.714ZM151.489 53.8006C151.489 53.0008 152.128 52.4353 153.051 52.4353C153.942 52.4353 154.554 52.951 154.554 53.657C154.554 54.1844 154.202 54.5799 153.736 55.0428L152.705 56.0359V56.0535H154.612V56.7566H151.539V56.1619L153.133 54.6267C153.561 54.199 153.693 53.9851 153.693 53.6922C153.693 53.3758 153.414 53.1238 153.022 53.1238C152.611 53.1238 152.31 53.4109 152.31 53.8006V53.8152H151.489V53.8006ZM155.652 57.6648H154.861L156.364 52.5291H157.152L155.652 57.6648ZM158.509 56.7566V53.3406H158.491L157.413 54.0847V53.2879L158.506 52.5291H159.385V56.7566H158.509ZM161.96 56.8504C161.052 56.8504 160.399 56.3113 160.372 55.5467H161.19C161.239 55.9041 161.556 56.1502 161.966 56.1502C162.429 56.1502 162.748 55.8279 162.748 55.368C162.748 54.8992 162.429 54.5711 161.972 54.5711C161.652 54.5711 161.377 54.7176 161.231 54.9607H160.44L160.648 52.5291H163.337V53.2322H161.342L161.245 54.3894H161.263C161.436 54.1053 161.773 53.9265 162.203 53.9265C163.012 53.9265 163.592 54.5213 163.592 55.3445C163.592 56.241 162.93 56.8504 161.96 56.8504Z" fill="#3D7CDB"/>
<rect x="203" y="25" width="143" height="58" rx="6" fill="#E0EBFD"/>
<path d="M217.348 59H216.206V50.8687H213.317V49.8403H220.236V50.8687H217.348V59ZM221.011 59V52.3984H222.115V59H221.011ZM221.563 51.2876C221.188 51.2876 220.877 50.9766 220.877 50.6021C220.877 50.2212 221.188 49.9165 221.563 49.9165C221.944 49.9165 222.255 50.2212 222.255 50.6021C222.255 50.9766 221.944 51.2876 221.563 51.2876ZM223.607 59V52.3984H224.648V53.4521H224.673C224.984 52.7539 225.657 52.2842 226.546 52.2842C227.447 52.2842 228.114 52.7412 228.399 53.541H228.425C228.793 52.7539 229.567 52.2842 230.494 52.2842C231.802 52.2842 232.646 53.1348 232.646 54.4424V59H231.542V54.6963C231.542 53.7949 231.04 53.2617 230.17 53.2617C229.294 53.2617 228.679 53.9092 228.679 54.8042V59H227.574V54.5757C227.574 53.7822 227.041 53.2617 226.222 53.2617C225.346 53.2617 224.711 53.9473 224.711 54.8613V59H223.607ZM236.702 53.2427C235.667 53.2427 234.944 54.0361 234.874 55.1343H238.46C238.435 54.0298 237.743 53.2427 236.702 53.2427ZM238.435 57.1084H239.521C239.33 58.2637 238.213 59.1143 236.772 59.1143C234.88 59.1143 233.731 57.8003 233.731 55.7246C233.731 53.6743 234.899 52.2842 236.721 52.2842C238.505 52.2842 239.603 53.5791 239.603 55.5786V55.9976H234.868V56.061C234.868 57.3242 235.61 58.1558 236.797 58.1558C237.635 58.1558 238.251 57.7305 238.435 57.1084ZM248.807 52.3984V59H247.76V57.9272H247.734C247.341 58.689 246.655 59.1143 245.64 59.1143C244.199 59.1143 243.354 58.1812 243.354 56.6831V52.3984H244.459V56.4863C244.459 57.5591 244.96 58.1367 245.982 58.1367C247.055 58.1367 247.703 57.4004 247.703 56.2769V52.3984H248.807ZM250.127 54.2202C250.127 53.0903 251.137 52.2842 252.59 52.2842C253.955 52.2842 254.958 53.0967 255.009 54.2139H253.955C253.879 53.5791 253.365 53.1855 252.552 53.1855C251.746 53.1855 251.213 53.5854 251.213 54.1631C251.213 54.6201 251.562 54.9248 252.311 55.1152L253.333 55.3628C254.666 55.6992 255.148 56.1816 255.148 57.1528C255.148 58.3018 254.063 59.1143 252.521 59.1143C251.073 59.1143 250.064 58.3271 249.95 57.1592H251.054C251.175 57.8447 251.695 58.2129 252.59 58.2129C253.485 58.2129 254.038 57.832 254.038 57.2354C254.038 56.7656 253.765 56.5117 253.022 56.3149L251.86 56.0166C250.699 55.7183 250.127 55.1216 250.127 54.2202ZM258.944 53.2427C257.91 53.2427 257.186 54.0361 257.116 55.1343H260.703C260.677 54.0298 259.985 53.2427 258.944 53.2427ZM260.677 57.1084H261.763C261.572 58.2637 260.455 59.1143 259.014 59.1143C257.123 59.1143 255.974 57.8003 255.974 55.7246C255.974 53.6743 257.142 52.2842 258.963 52.2842C260.747 52.2842 261.845 53.5791 261.845 55.5786V55.9976H257.11V56.061C257.11 57.3242 257.853 58.1558 259.04 58.1558C259.877 58.1558 260.493 57.7305 260.677 57.1084ZM265.463 59.1143C263.781 59.1143 262.639 57.7686 262.639 55.6992C262.639 53.6299 263.775 52.2842 265.438 52.2842C266.384 52.2842 267.146 52.7476 267.539 53.4712H267.564V49.8403H268.669V59H267.615V57.8828H267.596C267.171 58.6445 266.416 59.1143 265.463 59.1143ZM265.673 53.2554C264.505 53.2554 263.769 54.2075 263.769 55.6992C263.769 57.1973 264.505 58.1431 265.673 58.1431C266.809 58.1431 267.571 57.1782 267.571 55.6992C267.571 54.2266 266.809 53.2554 265.673 53.2554Z" fill="black"/>
<path d="M301.957 67.1762C294.68 62.1818 292.829 52.2339 297.824 44.9569C302.818 37.6799 312.766 35.8294 320.043 40.8238C327.32 45.8182 329.171 55.7661 324.176 63.0431C319.182 70.3201 309.234 72.1705 301.957 67.1762Z" stroke="#A5C4F2" stroke-width="4"/>
<path d="M299.441 63.8925C297.484 61.6062 296.249 58.7911 295.893 55.8032C295.536 52.8152 296.074 49.7886 297.437 47.1061C298.801 44.4235 300.929 42.2056 303.553 40.7326C306.177 39.2597 309.179 38.598 312.179 38.8311C315.179 39.0642 318.043 40.1818 320.408 42.0424C322.773 43.903 324.533 46.4232 325.466 49.2841" stroke="#3D7CDB" stroke-width="4" stroke-linecap="round"/>
<path d="M302.969 53.5354C302.969 52.469 303.821 51.7151 305.051 51.7151C306.239 51.7151 307.055 52.4026 307.055 53.344C307.055 54.0471 306.587 54.5745 305.965 55.1917L304.59 56.5159V56.5393H307.133V57.4768H303.036V56.6838L305.161 54.637C305.731 54.0667 305.907 53.7815 305.907 53.3909C305.907 52.969 305.536 52.6331 305.012 52.6331C304.465 52.6331 304.063 53.0159 304.063 53.5354V53.5549H302.969V53.5354ZM309.45 57.4768V51.8401H310.571V54.0354H310.594C310.817 53.5081 311.274 53.2112 311.911 53.2112C312.84 53.2112 313.372 53.8127 313.372 54.7815V57.4768H312.231V55.0237C312.231 54.4846 311.965 54.1565 311.446 54.1565C310.907 54.1565 310.59 54.5354 310.59 55.0862V57.4768H309.45ZM314.102 57.4768V53.2893H315.204V54.0432H315.227C315.376 53.512 315.731 53.2229 316.223 53.2229C316.356 53.2229 316.469 53.2424 316.548 53.2659V54.2698C316.454 54.2307 316.298 54.2034 316.133 54.2034C315.571 54.2034 315.243 54.5471 315.243 55.137V57.4768H314.102ZM316.946 54.5198C316.946 53.7229 317.637 53.1995 318.712 53.1995C319.762 53.1995 320.446 53.7307 320.462 54.5432H319.411C319.387 54.2073 319.118 54.0002 318.696 54.0002C318.301 54.0002 318.044 54.1799 318.044 54.4495C318.044 54.6565 318.223 54.7971 318.59 54.8831L319.391 55.0549C320.231 55.2424 320.571 55.5745 320.571 56.1995C320.571 57.0237 319.813 57.5667 318.708 57.5667C317.59 57.5667 316.903 57.0276 316.84 56.2112H317.954C318.008 56.5627 318.286 56.7659 318.739 56.7659C319.173 56.7659 319.434 56.594 319.434 56.3206C319.434 56.1096 319.294 55.9924 318.919 55.9026L318.145 55.7307C317.352 55.551 316.946 55.137 316.946 54.5198Z" fill="#3D7CDB"/>
<defs>
<clipPath id="clip0_61_222">
<rect width="10" height="10" fill="white" transform="translate(15 9.5)"/>
</clipPath>
</defs>
</svg>
