<svg width="20" height="20" viewBox="0 0 20 20" fill="none" xmlns="http://www.w3.org/2000/svg">
<path d="M8.375 2.10833L3.35833 5.38333C1.75 6.43333 1.75 8.78333 3.35833 9.83333L8.375 13.1083C9.275 13.7 10.7583 13.7 11.6583 13.1083L16.65 9.83333C18.25 8.78333 18.25 6.44167 16.65 5.39167L11.6583 2.11667C10.7583 1.51667 9.275 1.51667 8.375 2.10833Z" stroke="#E0EBFD" stroke-width="1.5" stroke-linecap="round" stroke-linejoin="round"/>
<path d="M4.69167 10.9L4.68333 14.8083C4.68333 15.8667 5.5 17 6.5 17.3333L9.15833 18.2167C9.61667 18.3667 10.375 18.3667 10.8417 18.2167L13.5 17.3333C14.5 17 15.3167 15.8667 15.3167 14.8083V10.9417" stroke="#E0EBFD" stroke-width="1.5" stroke-linecap="round" stroke-linejoin="round"/>
<path d="M17.8333 12.5V7.5" stroke="#E0EBFD" stroke-width="1.5" stroke-linecap="round" stroke-linejoin="round"/>
</svg>
