<svg width="85" height="80" viewBox="0 0 85 80" fill="none" xmlns="http://www.w3.org/2000/svg">
<circle cx="11.5909" cy="40.5682" r="11.5909" fill="url(#paint0_linear_62_240)"/>
<circle cx="54.7349" cy="11.5909" r="11.5909" fill="url(#paint1_linear_62_240)"/>
<circle cx="73.4091" cy="40.5682" r="11.5909" fill="url(#paint2_linear_62_240)"/>
<circle cx="57.9546" cy="68.2576" r="11.5909" fill="url(#paint3_linear_62_240)"/>
<path d="M17.7376 63.8539L18.967 62.2198L21.4256 59.7687L24.2941 56.5005L26.343 54.4579L27.9821 52.8238L29.2115 51.5982L30.031 49.9642L30.4408 49.5556L31.2604 47.9216L32.0799 45.4704V44.2449L32.4897 41.7937V39.7511V36.8915L31.2604 34.0319L29.2115 29.9466L27.9821 28.7211L26.7528 27.087L25.5234 26.27L23.0648 23.4103L21.4256 21.7762L18.967 19.7336L17.7376 18.0995L16.9181 16.0569L16.5083 12.3803L16.9181 9.52061L18.1474 7.06948L19.7865 5.4354L21.4256 4.20984L23.0648 3.3928L25.5234 2.57576L28.3919 2.98428L30.4408 3.3928L32.4897 5.4354L34.9484 7.06948L35.7679 9.52061L36.5875 13.1973V16.874L37.4071 19.7336L38.6364 21.7762L39.456 24.2274L41.0951 26.27L41.9146 27.904L44.3733 30.7637L46.832 31.9893L48.8809 32.8063L50.52 34.8489L51.3396 36.8915V38.1171L51.7493 39.3426V41.7937L52.1591 44.2449L51.3396 45.4704L50.52 46.696L48.4711 48.3301L46.832 49.9642L44.3733 52.0068L42.3244 53.6408L41.0951 55.2749L39.456 57.7261L38.2266 60.1772L37.4071 64.2624L36.5875 67.5306V72.0243L34.9484 75.701L32.0799 77.335L29.2115 78.5606H26.343L23.0648 77.7436L20.1963 76.9265L18.1474 75.701L16.9181 73.2498L16.0985 70.3902V67.5306V65.4879L17.7376 63.8539Z" fill="url(#paint4_linear_62_240)"/>
<defs>
<linearGradient id="paint0_linear_62_240" x1="11.5909" y1="28.9773" x2="11.5909" y2="52.1591" gradientUnits="userSpaceOnUse">
<stop stop-color="#3D7CDB" stop-opacity="0.5"/>
<stop offset="1" stop-color="#355689" stop-opacity="0.81"/>
</linearGradient>
<linearGradient id="paint1_linear_62_240" x1="54.7349" y1="0" x2="54.7349" y2="23.1818" gradientUnits="userSpaceOnUse">
<stop stop-color="#3D7CDB" stop-opacity="0.5"/>
<stop offset="1" stop-color="#355689" stop-opacity="0.81"/>
</linearGradient>
<linearGradient id="paint2_linear_62_240" x1="73.4091" y1="28.9773" x2="73.4091" y2="52.1591" gradientUnits="userSpaceOnUse">
<stop stop-color="#3D7CDB" stop-opacity="0.5"/>
<stop offset="1" stop-color="#355689" stop-opacity="0.81"/>
</linearGradient>
<linearGradient id="paint3_linear_62_240" x1="57.9546" y1="56.6667" x2="57.9546" y2="79.8485" gradientUnits="userSpaceOnUse">
<stop stop-color="#3D7CDB" stop-opacity="0.5"/>
<stop offset="1" stop-color="#355689" stop-opacity="0.81"/>
</linearGradient>
<linearGradient id="paint4_linear_62_240" x1="34.1288" y1="2.57576" x2="34.1288" y2="78.5606" gradientUnits="userSpaceOnUse">
<stop stop-color="#3D7CDB" stop-opacity="0.5"/>
<stop offset="1" stop-color="#355689" stop-opacity="0.81"/>
</linearGradient>
</defs>
</svg>
